<svg xmlns="http://www.w3.org/2000/svg" viewBox="0 0 512 512">
  <rect width="512" height="512" rx="80" fill="#2563eb"/>
  <g fill="white">
    <!-- Trofeum -->
    <path d="M256 64c-17.7 0-32 14.3-32 32v16h-48c-8.8 0-16 7.2-16 16v48c0 44.2 35.8 80 80 80h32c44.2 0 80-35.8 80-80v-48c0-8.8-7.2-16-16-16h-48V96c0-17.7-14.3-32-32-32zm-64 64v32c0 26.5 21.5 48 48 48h32c26.5 0 48-21.5 48-48v-32H192z"/>
    <rect x="232" y="240" width="48" height="96" rx="8"/>
    <path d="M200 336h112c8.8 0 16 7.2 16 16v32c0 8.8-7.2 16-16 16H200c-8.8 0-16-7.2-16-16v-32c0-8.8 7.2-16 16-16z"/>
    <!-- Litery "TH" -->
    <text x="256" y="450" font-size="120" font-weight="bold" text-anchor="middle" fill="white" font-family="Arial, sans-serif">TH</text>
  </g>
</svg>
